<svg width="208" height="48" viewBox="0 0 208 48" fill="none" xmlns="http://www.w3.org/2000/svg">
<rect width="208" height="48" fill="#111111"/>
<path d="M96.8109 25.2969H98.7641C98.7016 26.0417 98.4932 26.7057 98.1391 27.2891C97.7849 27.8672 97.2875 28.3229 96.6469 28.6562C96.0063 28.9896 95.2276 29.1562 94.3109 29.1562C93.6078 29.1562 92.975 29.0312 92.4125 28.7812C91.85 28.526 91.3682 28.1667 90.9672 27.7031C90.5661 27.2344 90.2589 26.6693 90.0453 26.0078C89.837 25.3464 89.7328 24.6068 89.7328 23.7891V22.8438C89.7328 22.026 89.8396 21.2865 90.0531 20.625C90.2719 19.9635 90.5844 19.3984 90.9906 18.9297C91.3969 18.4557 91.8839 18.0938 92.4516 17.8438C93.0245 17.5938 93.6677 17.4688 94.3813 17.4688C95.2875 17.4688 96.0531 17.6354 96.6781 17.9688C97.3031 18.3021 97.7875 18.763 98.1313 19.3516C98.4802 19.9401 98.6938 20.6146 98.7719 21.375H96.8188C96.7667 20.8854 96.6521 20.4661 96.475 20.1172C96.3031 19.7682 96.0479 19.5026 95.7094 19.3203C95.3708 19.1328 94.9281 19.0391 94.3813 19.0391C93.9333 19.0391 93.5427 19.1224 93.2094 19.2891C92.876 19.4557 92.5974 19.7005 92.3734 20.0234C92.1495 20.3464 91.9802 20.7448 91.8656 21.2188C91.7563 21.6875 91.7016 22.224 91.7016 22.8281V23.7891C91.7016 24.362 91.751 24.8828 91.85 25.3516C91.9542 25.8151 92.1104 26.2135 92.3188 26.5469C92.5323 26.8802 92.8031 27.138 93.1313 27.3203C93.4594 27.5026 93.8526 27.5938 94.3109 27.5938C94.8682 27.5938 95.3188 27.5052 95.6625 27.3281C96.0115 27.151 96.2745 26.8932 96.4516 26.5547C96.6339 26.2109 96.7536 25.7917 96.8109 25.2969ZM105.091 17.625V29H103.145V17.625H105.091ZM108.661 17.625V19.1875H99.6063V17.625H108.661ZM113.941 19.1406L110.542 29H108.488L112.769 17.625H114.081L113.941 19.1406ZM116.784 29L113.378 19.1406L113.23 17.625H114.55L118.847 29H116.784ZM116.62 24.7812V26.3359H110.433V24.7812H116.62Z" fill="white"/>
</svg>
