<svg width="236" height="51" viewBox="0 0 236 51" fill="none" xmlns="http://www.w3.org/2000/svg">
<rect x="0.5" y="1.38867" width="235" height="49" fill="#111111"/>
<rect x="0.5" y="1.38867" width="235" height="49" stroke="#111111"/>
<path d="M54.8828 28.0137C54.8828 27.748 54.8411 27.5137 54.7578 27.3105C54.6797 27.1022 54.5391 26.9147 54.3359 26.748C54.138 26.5814 53.862 26.4225 53.5078 26.2715C53.1589 26.1204 52.7161 25.9668 52.1797 25.8105C51.6172 25.6439 51.1094 25.459 50.6562 25.2559C50.2031 25.0475 49.8151 24.8105 49.4922 24.5449C49.1693 24.2793 48.9219 23.9746 48.75 23.6309C48.5781 23.2871 48.4922 22.8939 48.4922 22.4512C48.4922 22.0085 48.5833 21.5996 48.7656 21.2246C48.9479 20.8496 49.2083 20.5241 49.5469 20.248C49.8906 19.9668 50.2995 19.748 50.7734 19.5918C51.2474 19.4355 51.776 19.3574 52.3594 19.3574C53.2135 19.3574 53.9375 19.5215 54.5312 19.8496C55.1302 20.1725 55.5859 20.597 55.8984 21.123C56.2109 21.6439 56.3672 22.2012 56.3672 22.7949H54.8672C54.8672 22.3678 54.776 21.9902 54.5938 21.6621C54.4115 21.3288 54.1354 21.0684 53.7656 20.8809C53.3958 20.6882 52.9271 20.5918 52.3594 20.5918C51.8229 20.5918 51.3802 20.6725 51.0312 20.834C50.6823 20.9954 50.4219 21.2142 50.25 21.4902C50.0833 21.7663 50 22.0814 50 22.4355C50 22.6751 50.0495 22.8939 50.1484 23.0918C50.2526 23.2845 50.4115 23.4642 50.625 23.6309C50.8438 23.7975 51.1198 23.9512 51.4531 24.0918C51.7917 24.2324 52.1953 24.3678 52.6641 24.498C53.3099 24.6803 53.8672 24.8835 54.3359 25.1074C54.8047 25.3314 55.1901 25.584 55.4922 25.8652C55.7995 26.1413 56.026 26.4564 56.1719 26.8105C56.3229 27.1595 56.3984 27.5553 56.3984 27.998C56.3984 28.4616 56.3047 28.8809 56.1172 29.2559C55.9297 29.6309 55.6615 29.9512 55.3125 30.2168C54.9635 30.4824 54.5443 30.6882 54.0547 30.834C53.5703 30.9746 53.0286 31.0449 52.4297 31.0449C51.9036 31.0449 51.3854 30.972 50.875 30.8262C50.3698 30.6803 49.9089 30.4616 49.4922 30.1699C49.0807 29.8783 48.75 29.5189 48.5 29.0918C48.2552 28.6595 48.1328 28.1595 48.1328 27.5918H49.6328C49.6328 27.9824 49.7083 28.3184 49.8594 28.5996C50.0104 28.8757 50.2161 29.1048 50.4766 29.2871C50.7422 29.4694 51.0417 29.6048 51.375 29.6934C51.7135 29.7767 52.0651 29.8184 52.4297 29.8184C52.9557 29.8184 53.401 29.7454 53.7656 29.5996C54.1302 29.4538 54.4062 29.2454 54.5938 28.9746C54.7865 28.7038 54.8828 28.3835 54.8828 28.0137ZM57.7188 26.7559V26.5762C57.7188 25.9668 57.8073 25.4017 57.9844 24.8809C58.1615 24.3548 58.4167 23.8991 58.75 23.5137C59.0833 23.123 59.487 22.821 59.9609 22.6074C60.4349 22.3887 60.9661 22.2793 61.5547 22.2793C62.1484 22.2793 62.6823 22.3887 63.1562 22.6074C63.6354 22.821 64.0417 23.123 64.375 23.5137C64.7135 23.8991 64.9714 24.3548 65.1484 24.8809C65.3255 25.4017 65.4141 25.9668 65.4141 26.5762V26.7559C65.4141 27.3652 65.3255 27.9303 65.1484 28.4512C64.9714 28.972 64.7135 29.4277 64.375 29.8184C64.0417 30.2038 63.638 30.5059 63.1641 30.7246C62.6953 30.9382 62.1641 31.0449 61.5703 31.0449C60.9766 31.0449 60.4427 30.9382 59.9688 30.7246C59.4948 30.5059 59.0885 30.2038 58.75 29.8184C58.4167 29.4277 58.1615 28.972 57.9844 28.4512C57.8073 27.9303 57.7188 27.3652 57.7188 26.7559ZM59.1641 26.5762V26.7559C59.1641 27.1777 59.2135 27.5762 59.3125 27.9512C59.4115 28.321 59.5599 28.6491 59.7578 28.9355C59.9609 29.222 60.2135 29.4486 60.5156 29.6152C60.8177 29.7767 61.1693 29.8574 61.5703 29.8574C61.9661 29.8574 62.3125 29.7767 62.6094 29.6152C62.9115 29.4486 63.1615 29.222 63.3594 28.9355C63.5573 28.6491 63.7057 28.321 63.8047 27.9512C63.9089 27.5762 63.9609 27.1777 63.9609 26.7559V26.5762C63.9609 26.1595 63.9089 25.7663 63.8047 25.3965C63.7057 25.0215 63.5547 24.6908 63.3516 24.4043C63.1536 24.1126 62.9036 23.8835 62.6016 23.7168C62.3047 23.5501 61.9557 23.4668 61.5547 23.4668C61.1589 23.4668 60.8099 23.5501 60.5078 23.7168C60.2109 23.8835 59.9609 24.1126 59.7578 24.4043C59.5599 24.6908 59.4115 25.0215 59.3125 25.3965C59.2135 25.7663 59.1641 26.1595 59.1641 26.5762ZM68.7969 18.8887V30.8887H67.3438V18.8887H68.7969ZM72.6875 22.4355V30.8887H71.2344V22.4355H72.6875ZM71.125 20.1934C71.125 19.959 71.1953 19.7611 71.3359 19.5996C71.4818 19.4382 71.6953 19.3574 71.9766 19.3574C72.2526 19.3574 72.4635 19.4382 72.6094 19.5996C72.7604 19.7611 72.8359 19.959 72.8359 20.1934C72.8359 20.4173 72.7604 20.61 72.6094 20.7715C72.4635 20.9277 72.2526 21.0059 71.9766 21.0059C71.6953 21.0059 71.4818 20.9277 71.3359 20.7715C71.1953 20.61 71.125 20.4173 71.125 20.1934ZM78.3906 29.8574C78.7344 29.8574 79.0521 29.7871 79.3438 29.6465C79.6354 29.5059 79.875 29.3132 80.0625 29.0684C80.25 28.8184 80.3568 28.5345 80.3828 28.2168H81.7578C81.7318 28.7168 81.5625 29.1829 81.25 29.6152C80.9427 30.0423 80.5391 30.3887 80.0391 30.6543C79.5391 30.9147 78.9896 31.0449 78.3906 31.0449C77.7552 31.0449 77.2005 30.9329 76.7266 30.709C76.2578 30.485 75.8672 30.1777 75.5547 29.7871C75.2474 29.3965 75.0156 28.9486 74.8594 28.4434C74.7083 27.9329 74.6328 27.3939 74.6328 26.8262V26.498C74.6328 25.9303 74.7083 25.3939 74.8594 24.8887C75.0156 24.3783 75.2474 23.9277 75.5547 23.5371C75.8672 23.1465 76.2578 22.8392 76.7266 22.6152C77.2005 22.3913 77.7552 22.2793 78.3906 22.2793C79.0521 22.2793 79.6302 22.4147 80.125 22.6855C80.6198 22.9512 81.0078 23.3158 81.2891 23.7793C81.5755 24.2376 81.7318 24.7585 81.7578 25.3418H80.3828C80.3568 24.9928 80.2578 24.6777 80.0859 24.3965C79.9193 24.1152 79.6901 23.8913 79.3984 23.7246C79.112 23.5527 78.776 23.4668 78.3906 23.4668C77.9479 23.4668 77.5755 23.5553 77.2734 23.7324C76.9766 23.9043 76.7396 24.1387 76.5625 24.4355C76.3906 24.7272 76.2656 25.0527 76.1875 25.4121C76.1146 25.7663 76.0781 26.1283 76.0781 26.498V26.8262C76.0781 27.196 76.1146 27.5605 76.1875 27.9199C76.2604 28.2793 76.3828 28.6048 76.5547 28.8965C76.7318 29.1882 76.9688 29.4225 77.2656 29.5996C77.5677 29.7715 77.9427 29.8574 78.3906 29.8574ZM84.9531 22.4355V30.8887H83.5V22.4355H84.9531ZM83.3906 20.1934C83.3906 19.959 83.4609 19.7611 83.6016 19.5996C83.7474 19.4382 83.9609 19.3574 84.2422 19.3574C84.5182 19.3574 84.7292 19.4382 84.875 19.5996C85.026 19.7611 85.1016 19.959 85.1016 20.1934C85.1016 20.4173 85.026 20.61 84.875 20.7715C84.7292 20.9277 84.5182 21.0059 84.2422 21.0059C83.9609 21.0059 83.7474 20.9277 83.6016 20.7715C83.4609 20.61 83.3906 20.4173 83.3906 20.1934ZM90.8125 22.4355V23.5449H86.2422V22.4355H90.8125ZM87.7891 20.3809H89.2344V28.7949C89.2344 29.0814 89.2786 29.2975 89.3672 29.4434C89.4557 29.5892 89.5703 29.6855 89.7109 29.7324C89.8516 29.7793 90.0026 29.8027 90.1641 29.8027C90.2839 29.8027 90.4089 29.7923 90.5391 29.7715C90.6745 29.7454 90.776 29.7246 90.8438 29.709L90.8516 30.8887C90.737 30.9251 90.5859 30.959 90.3984 30.9902C90.2161 31.0267 89.9948 31.0449 89.7344 31.0449C89.3802 31.0449 89.0547 30.9746 88.7578 30.834C88.4609 30.6934 88.224 30.459 88.0469 30.1309C87.875 29.7975 87.7891 29.3496 87.7891 28.7871V20.3809ZM97.4922 29.4434V25.0918C97.4922 24.7585 97.4245 24.4694 97.2891 24.2246C97.1589 23.9746 96.9609 23.7819 96.6953 23.6465C96.4297 23.5111 96.1016 23.4434 95.7109 23.4434C95.3464 23.4434 95.026 23.5059 94.75 23.6309C94.4792 23.7559 94.2656 23.9199 94.1094 24.123C93.9583 24.3262 93.8828 24.5449 93.8828 24.7793H92.4375C92.4375 24.4772 92.5156 24.1777 92.6719 23.8809C92.8281 23.584 93.0521 23.3158 93.3438 23.0762C93.6406 22.8314 93.9948 22.6387 94.4062 22.498C94.8229 22.3522 95.2865 22.2793 95.7969 22.2793C96.4115 22.2793 96.9531 22.3835 97.4219 22.5918C97.8958 22.8001 98.2656 23.1152 98.5312 23.5371C98.8021 23.9538 98.9375 24.4772 98.9375 25.1074V29.0449C98.9375 29.3262 98.9609 29.6257 99.0078 29.9434C99.0599 30.2611 99.1354 30.5345 99.2344 30.7637V30.8887H97.7266C97.6536 30.722 97.5964 30.5007 97.5547 30.2246C97.513 29.9434 97.4922 29.6829 97.4922 29.4434ZM97.7422 25.7637L97.7578 26.7793H96.2969C95.8854 26.7793 95.5182 26.8132 95.1953 26.8809C94.8724 26.9434 94.6016 27.0397 94.3828 27.1699C94.1641 27.3001 93.9974 27.4642 93.8828 27.6621C93.7682 27.8548 93.7109 28.0814 93.7109 28.3418C93.7109 28.6074 93.7708 28.8496 93.8906 29.0684C94.0104 29.2871 94.1901 29.4616 94.4297 29.5918C94.6745 29.7168 94.974 29.7793 95.3281 29.7793C95.7708 29.7793 96.1615 29.6855 96.5 29.498C96.8385 29.3105 97.1068 29.0814 97.3047 28.8105C97.5078 28.5397 97.6172 28.2767 97.6328 28.0215L98.25 28.7168C98.2135 28.9355 98.1146 29.1777 97.9531 29.4434C97.7917 29.709 97.5755 29.9642 97.3047 30.209C97.0391 30.4486 96.7214 30.6491 96.3516 30.8105C95.987 30.9668 95.5755 31.0449 95.1172 31.0449C94.5443 31.0449 94.0417 30.9329 93.6094 30.709C93.1823 30.485 92.849 30.1855 92.6094 29.8105C92.375 29.4303 92.2578 29.0059 92.2578 28.5371C92.2578 28.084 92.3464 27.6855 92.5234 27.3418C92.7005 26.9928 92.9557 26.7038 93.2891 26.4746C93.6224 26.2402 94.0234 26.0632 94.4922 25.9434C94.9609 25.8236 95.4844 25.7637 96.0625 25.7637H97.7422ZM102.656 23.7637V30.8887H101.211V22.4355H102.617L102.656 23.7637ZM105.297 22.3887L105.289 23.7324C105.169 23.7064 105.055 23.6908 104.945 23.6855C104.841 23.6751 104.721 23.6699 104.586 23.6699C104.253 23.6699 103.958 23.722 103.703 23.8262C103.448 23.9303 103.232 24.0762 103.055 24.2637C102.878 24.4512 102.737 24.6751 102.633 24.9355C102.534 25.1908 102.469 25.472 102.438 25.7793L102.031 26.0137C102.031 25.5033 102.081 25.0241 102.18 24.5762C102.284 24.1283 102.443 23.7324 102.656 23.3887C102.87 23.0397 103.141 22.7689 103.469 22.5762C103.802 22.3783 104.198 22.2793 104.656 22.2793C104.76 22.2793 104.88 22.2923 105.016 22.3184C105.151 22.3392 105.245 22.3626 105.297 22.3887ZM119.578 24.8418V25.5605C119.578 26.4147 119.471 27.1803 119.258 27.8574C119.044 28.5345 118.737 29.11 118.336 29.584C117.935 30.0579 117.453 30.4199 116.891 30.6699C116.333 30.9199 115.708 31.0449 115.016 31.0449C114.344 31.0449 113.727 30.9199 113.164 30.6699C112.607 30.4199 112.122 30.0579 111.711 29.584C111.305 29.11 110.99 28.5345 110.766 27.8574C110.542 27.1803 110.43 26.4147 110.43 25.5605V24.8418C110.43 23.9876 110.539 23.2246 110.758 22.5527C110.982 21.8757 111.297 21.3001 111.703 20.8262C112.109 20.347 112.591 19.9824 113.148 19.7324C113.711 19.4824 114.328 19.3574 115 19.3574C115.693 19.3574 116.318 19.4824 116.875 19.7324C117.438 19.9824 117.919 20.347 118.32 20.8262C118.727 21.3001 119.036 21.8757 119.25 22.5527C119.469 23.2246 119.578 23.9876 119.578 24.8418ZM118.086 25.5605V24.8262C118.086 24.1491 118.016 23.5501 117.875 23.0293C117.74 22.5085 117.539 22.071 117.273 21.7168C117.008 21.3626 116.682 21.0944 116.297 20.9121C115.917 20.7298 115.484 20.6387 115 20.6387C114.531 20.6387 114.107 20.7298 113.727 20.9121C113.352 21.0944 113.029 21.3626 112.758 21.7168C112.492 22.071 112.286 22.5085 112.141 23.0293C111.995 23.5501 111.922 24.1491 111.922 24.8262V25.5605C111.922 26.2428 111.995 26.847 112.141 27.373C112.286 27.8939 112.495 28.334 112.766 28.6934C113.042 29.0475 113.367 29.3158 113.742 29.498C114.122 29.6803 114.547 29.7715 115.016 29.7715C115.505 29.7715 115.94 29.6803 116.32 29.498C116.701 29.3158 117.021 29.0475 117.281 28.6934C117.547 28.334 117.747 27.8939 117.883 27.373C118.018 26.847 118.086 26.2428 118.086 25.5605ZM123.062 23.7637V30.8887H121.617V22.4355H123.023L123.062 23.7637ZM125.703 22.3887L125.695 23.7324C125.576 23.7064 125.461 23.6908 125.352 23.6855C125.247 23.6751 125.128 23.6699 124.992 23.6699C124.659 23.6699 124.365 23.722 124.109 23.8262C123.854 23.9303 123.638 24.0762 123.461 24.2637C123.284 24.4512 123.143 24.6751 123.039 24.9355C122.94 25.1908 122.875 25.472 122.844 25.7793L122.438 26.0137C122.438 25.5033 122.487 25.0241 122.586 24.5762C122.69 24.1283 122.849 23.7324 123.062 23.3887C123.276 23.0397 123.547 22.7689 123.875 22.5762C124.208 22.3783 124.604 22.2793 125.062 22.2793C125.167 22.2793 125.286 22.2923 125.422 22.3184C125.557 22.3392 125.651 22.3626 125.703 22.3887ZM130.266 29.8574C130.609 29.8574 130.927 29.7871 131.219 29.6465C131.51 29.5059 131.75 29.3132 131.938 29.0684C132.125 28.8184 132.232 28.5345 132.258 28.2168H133.633C133.607 28.7168 133.438 29.1829 133.125 29.6152C132.818 30.0423 132.414 30.3887 131.914 30.6543C131.414 30.9147 130.865 31.0449 130.266 31.0449C129.63 31.0449 129.076 30.9329 128.602 30.709C128.133 30.485 127.742 30.1777 127.43 29.7871C127.122 29.3965 126.891 28.9486 126.734 28.4434C126.583 27.9329 126.508 27.3939 126.508 26.8262V26.498C126.508 25.9303 126.583 25.3939 126.734 24.8887C126.891 24.3783 127.122 23.9277 127.43 23.5371C127.742 23.1465 128.133 22.8392 128.602 22.6152C129.076 22.3913 129.63 22.2793 130.266 22.2793C130.927 22.2793 131.505 22.4147 132 22.6855C132.495 22.9512 132.883 23.3158 133.164 23.7793C133.451 24.2376 133.607 24.7585 133.633 25.3418H132.258C132.232 24.9928 132.133 24.6777 131.961 24.3965C131.794 24.1152 131.565 23.8913 131.273 23.7246C130.987 23.5527 130.651 23.4668 130.266 23.4668C129.823 23.4668 129.451 23.5553 129.148 23.7324C128.852 23.9043 128.615 24.1387 128.438 24.4355C128.266 24.7272 128.141 25.0527 128.062 25.4121C127.99 25.7663 127.953 26.1283 127.953 26.498V26.8262C127.953 27.196 127.99 27.5605 128.062 27.9199C128.135 28.2793 128.258 28.6048 128.43 28.8965C128.607 29.1882 128.844 29.4225 129.141 29.5996C129.443 29.7715 129.818 29.8574 130.266 29.8574ZM129.469 30.9668H130.508L130.414 31.3809C130.716 31.4329 130.99 31.5579 131.234 31.7559C131.484 31.9538 131.609 32.2793 131.609 32.7324C131.609 32.9772 131.557 33.1986 131.453 33.3965C131.354 33.5996 131.206 33.7715 131.008 33.9121C130.81 34.0579 130.562 34.1699 130.266 34.248C129.974 34.3262 129.633 34.3652 129.242 34.3652L129.188 33.5293C129.427 33.5293 129.643 33.5033 129.836 33.4512C130.034 33.3991 130.19 33.3158 130.305 33.2012C130.424 33.0866 130.484 32.9382 130.484 32.7559C130.484 32.584 130.44 32.4486 130.352 32.3496C130.263 32.2507 130.125 32.1751 129.938 32.123C129.755 32.0762 129.518 32.0423 129.227 32.0215L129.469 30.9668ZM140.242 29.4434V25.0918C140.242 24.7585 140.174 24.4694 140.039 24.2246C139.909 23.9746 139.711 23.7819 139.445 23.6465C139.18 23.5111 138.852 23.4434 138.461 23.4434C138.096 23.4434 137.776 23.5059 137.5 23.6309C137.229 23.7559 137.016 23.9199 136.859 24.123C136.708 24.3262 136.633 24.5449 136.633 24.7793H135.188C135.188 24.4772 135.266 24.1777 135.422 23.8809C135.578 23.584 135.802 23.3158 136.094 23.0762C136.391 22.8314 136.745 22.6387 137.156 22.498C137.573 22.3522 138.036 22.2793 138.547 22.2793C139.161 22.2793 139.703 22.3835 140.172 22.5918C140.646 22.8001 141.016 23.1152 141.281 23.5371C141.552 23.9538 141.688 24.4772 141.688 25.1074V29.0449C141.688 29.3262 141.711 29.6257 141.758 29.9434C141.81 30.2611 141.885 30.5345 141.984 30.7637V30.8887H140.477C140.404 30.722 140.346 30.5007 140.305 30.2246C140.263 29.9434 140.242 29.6829 140.242 29.4434ZM140.492 25.7637L140.508 26.7793H139.047C138.635 26.7793 138.268 26.8132 137.945 26.8809C137.622 26.9434 137.352 27.0397 137.133 27.1699C136.914 27.3001 136.747 27.4642 136.633 27.6621C136.518 27.8548 136.461 28.0814 136.461 28.3418C136.461 28.6074 136.521 28.8496 136.641 29.0684C136.76 29.2871 136.94 29.4616 137.18 29.5918C137.424 29.7168 137.724 29.7793 138.078 29.7793C138.521 29.7793 138.911 29.6855 139.25 29.498C139.589 29.3105 139.857 29.0814 140.055 28.8105C140.258 28.5397 140.367 28.2767 140.383 28.0215L141 28.7168C140.964 28.9355 140.865 29.1777 140.703 29.4434C140.542 29.709 140.326 29.9642 140.055 30.209C139.789 30.4486 139.471 30.6491 139.102 30.8105C138.737 30.9668 138.326 31.0449 137.867 31.0449C137.294 31.0449 136.792 30.9329 136.359 30.709C135.932 30.485 135.599 30.1855 135.359 29.8105C135.125 29.4303 135.008 29.0059 135.008 28.5371C135.008 28.084 135.096 27.6855 135.273 27.3418C135.451 26.9928 135.706 26.7038 136.039 26.4746C136.372 26.2402 136.773 26.0632 137.242 25.9434C137.711 25.8236 138.234 25.7637 138.812 25.7637H140.492ZM145.398 24.1152V30.8887H143.945V22.4355H145.32L145.398 24.1152ZM145.102 26.3418L144.43 26.3184C144.435 25.7402 144.51 25.2064 144.656 24.7168C144.802 24.222 145.018 23.7923 145.305 23.4277C145.591 23.0632 145.948 22.7819 146.375 22.584C146.802 22.3809 147.297 22.2793 147.859 22.2793C148.255 22.2793 148.62 22.3366 148.953 22.4512C149.286 22.5605 149.576 22.735 149.82 22.9746C150.065 23.2142 150.255 23.5215 150.391 23.8965C150.526 24.2715 150.594 24.7246 150.594 25.2559V30.8887H149.148V25.3262C149.148 24.8835 149.073 24.5293 148.922 24.2637C148.776 23.998 148.568 23.8053 148.297 23.6855C148.026 23.5605 147.708 23.498 147.344 23.498C146.917 23.498 146.56 23.5736 146.273 23.7246C145.987 23.8757 145.758 24.084 145.586 24.3496C145.414 24.6152 145.289 24.9199 145.211 25.2637C145.138 25.6022 145.102 25.9616 145.102 26.3418ZM150.578 25.5449L149.609 25.8418C149.615 25.3783 149.69 24.9329 149.836 24.5059C149.987 24.0788 150.203 23.6986 150.484 23.3652C150.771 23.0319 151.122 22.7689 151.539 22.5762C151.956 22.3783 152.432 22.2793 152.969 22.2793C153.422 22.2793 153.823 22.3392 154.172 22.459C154.526 22.5788 154.823 22.7637 155.062 23.0137C155.307 23.2585 155.492 23.5736 155.617 23.959C155.742 24.3444 155.805 24.8027 155.805 25.334V30.8887H154.352V25.3184C154.352 24.8444 154.276 24.4772 154.125 24.2168C153.979 23.9512 153.771 23.7663 153.5 23.6621C153.234 23.5527 152.917 23.498 152.547 23.498C152.229 23.498 151.948 23.5527 151.703 23.6621C151.458 23.7715 151.253 23.9225 151.086 24.1152C150.919 24.3027 150.792 24.5189 150.703 24.7637C150.62 25.0085 150.578 25.2689 150.578 25.5449ZM161.5 31.0449C160.911 31.0449 160.378 30.946 159.898 30.748C159.424 30.5449 159.016 30.2611 158.672 29.8965C158.333 29.5319 158.073 29.0996 157.891 28.5996C157.708 28.0996 157.617 27.5527 157.617 26.959V26.6309C157.617 25.9434 157.719 25.3314 157.922 24.7949C158.125 24.2533 158.401 23.7949 158.75 23.4199C159.099 23.0449 159.495 22.7611 159.938 22.5684C160.38 22.3757 160.839 22.2793 161.312 22.2793C161.917 22.2793 162.438 22.3835 162.875 22.5918C163.318 22.8001 163.68 23.0918 163.961 23.4668C164.242 23.8366 164.451 24.2741 164.586 24.7793C164.721 25.2793 164.789 25.8262 164.789 26.4199V27.0684H158.477V25.8887H163.344V25.7793C163.323 25.4043 163.245 25.0397 163.109 24.6855C162.979 24.3314 162.771 24.0397 162.484 23.8105C162.198 23.5814 161.807 23.4668 161.312 23.4668C160.984 23.4668 160.682 23.5371 160.406 23.6777C160.13 23.8132 159.893 24.0163 159.695 24.2871C159.497 24.5579 159.344 24.8887 159.234 25.2793C159.125 25.6699 159.07 26.1204 159.07 26.6309V26.959C159.07 27.36 159.125 27.7376 159.234 28.0918C159.349 28.4408 159.513 28.748 159.727 29.0137C159.945 29.2793 160.208 29.4876 160.516 29.6387C160.828 29.7897 161.182 29.8652 161.578 29.8652C162.089 29.8652 162.521 29.7611 162.875 29.5527C163.229 29.3444 163.539 29.0658 163.805 28.7168L164.68 29.4121C164.497 29.6882 164.266 29.9512 163.984 30.2012C163.703 30.4512 163.357 30.6543 162.945 30.8105C162.539 30.9668 162.057 31.0449 161.5 31.0449ZM167.922 24.2402V30.8887H166.477V22.4355H167.844L167.922 24.2402ZM167.578 26.3418L166.977 26.3184C166.982 25.7402 167.068 25.2064 167.234 24.7168C167.401 24.222 167.635 23.7923 167.938 23.4277C168.24 23.0632 168.599 22.7819 169.016 22.584C169.438 22.3809 169.904 22.2793 170.414 22.2793C170.831 22.2793 171.206 22.3366 171.539 22.4512C171.872 22.5605 172.156 22.7376 172.391 22.9824C172.63 23.2272 172.812 23.5449 172.938 23.9355C173.062 24.321 173.125 24.7923 173.125 25.3496V30.8887H171.672V25.334C171.672 24.8913 171.607 24.5371 171.477 24.2715C171.346 24.0007 171.156 23.8053 170.906 23.6855C170.656 23.5605 170.349 23.498 169.984 23.498C169.625 23.498 169.297 23.5736 169 23.7246C168.708 23.8757 168.456 24.084 168.242 24.3496C168.034 24.6152 167.87 24.9199 167.75 25.2637C167.635 25.6022 167.578 25.9616 167.578 26.3418ZM178.859 22.4355V23.5449H174.289V22.4355H178.859ZM175.836 20.3809H177.281V28.7949C177.281 29.0814 177.326 29.2975 177.414 29.4434C177.503 29.5892 177.617 29.6855 177.758 29.7324C177.898 29.7793 178.049 29.8027 178.211 29.8027C178.331 29.8027 178.456 29.7923 178.586 29.7715C178.721 29.7454 178.823 29.7246 178.891 29.709L178.898 30.8887C178.784 30.9251 178.633 30.959 178.445 30.9902C178.263 31.0267 178.042 31.0449 177.781 31.0449C177.427 31.0449 177.102 30.9746 176.805 30.834C176.508 30.6934 176.271 30.459 176.094 30.1309C175.922 29.7975 175.836 29.3496 175.836 28.7871V20.3809ZM180.016 26.7559V26.5762C180.016 25.9668 180.104 25.4017 180.281 24.8809C180.458 24.3548 180.714 23.8991 181.047 23.5137C181.38 23.123 181.784 22.821 182.258 22.6074C182.732 22.3887 183.263 22.2793 183.852 22.2793C184.445 22.2793 184.979 22.3887 185.453 22.6074C185.932 22.821 186.339 23.123 186.672 23.5137C187.01 23.8991 187.268 24.3548 187.445 24.8809C187.622 25.4017 187.711 25.9668 187.711 26.5762V26.7559C187.711 27.3652 187.622 27.9303 187.445 28.4512C187.268 28.972 187.01 29.4277 186.672 29.8184C186.339 30.2038 185.935 30.5059 185.461 30.7246C184.992 30.9382 184.461 31.0449 183.867 31.0449C183.273 31.0449 182.74 30.9382 182.266 30.7246C181.792 30.5059 181.385 30.2038 181.047 29.8184C180.714 29.4277 180.458 28.972 180.281 28.4512C180.104 27.9303 180.016 27.3652 180.016 26.7559ZM181.461 26.5762V26.7559C181.461 27.1777 181.51 27.5762 181.609 27.9512C181.708 28.321 181.857 28.6491 182.055 28.9355C182.258 29.222 182.51 29.4486 182.812 29.6152C183.115 29.7767 183.466 29.8574 183.867 29.8574C184.263 29.8574 184.609 29.7767 184.906 29.6152C185.208 29.4486 185.458 29.222 185.656 28.9355C185.854 28.6491 186.003 28.321 186.102 27.9512C186.206 27.5762 186.258 27.1777 186.258 26.7559V26.5762C186.258 26.1595 186.206 25.7663 186.102 25.3965C186.003 25.0215 185.852 24.6908 185.648 24.4043C185.451 24.1126 185.201 23.8835 184.898 23.7168C184.602 23.5501 184.253 23.4668 183.852 23.4668C183.456 23.4668 183.107 23.5501 182.805 23.7168C182.508 23.8835 182.258 24.1126 182.055 24.4043C181.857 24.6908 181.708 25.0215 181.609 25.3965C181.51 25.7663 181.461 26.1595 181.461 26.5762Z" fill="white"/>
</svg>
