<svg width="24" height="25" viewBox="0 0 24 25" fill="none" xmlns="http://www.w3.org/2000/svg">
<g id="Icon / Facebook">
<path id="Vector" d="M16.5 6.88867H13.5C12.9477 6.88867 12.5 7.33639 12.5 7.88867V10.8887H16.5C16.6137 10.8862 16.7216 10.9391 16.7892 11.0306C16.8568 11.1221 16.8758 11.2407 16.84 11.3487L16.1 13.5487C16.0318 13.7506 15.8431 13.8871 15.63 13.8887H12.5V21.3887C12.5 21.6648 12.2761 21.8887 12 21.8887H9.5C9.22386 21.8887 9 21.6648 9 21.3887V13.8887H7.5C7.22386 13.8887 7 13.6648 7 13.3887V11.3887C7 11.1126 7.22386 10.8887 7.5 10.8887H9V7.88867C9 5.67953 10.7909 3.88867 13 3.88867H16.5C16.7761 3.88867 17 4.11253 17 4.38867V6.38867C17 6.66481 16.7761 6.88867 16.5 6.88867Z" fill="#111111"/>
</g>
</svg>
