<svg width="63" height="28" viewBox="0 0 63 28" fill="none" xmlns="http://www.w3.org/2000/svg">
<g clip-path="url(#clip0_6_616)">
<path d="M0.564453 21.8886H13.2485V18.3326H5.10045V1.86865H0.564453V21.8886Z" fill="#111111"/>
<path d="M21.587 19.1167C19.291 19.1167 18.003 17.4367 18.003 14.6367V14.4127C18.003 11.6127 19.347 9.98869 21.587 9.98869C23.855 9.98869 25.171 11.6687 25.171 14.4687V14.6647C25.171 17.4367 23.855 19.1167 21.587 19.1167ZM21.559 22.1967C25.955 22.1967 29.287 19.2567 29.287 14.6367V14.4127C29.287 9.84869 25.983 6.90869 21.587 6.90869C17.191 6.90869 13.859 9.90469 13.859 14.4967V14.7207C13.859 19.2847 17.191 22.1967 21.559 22.1967Z" fill="#111111"/>
<path d="M37.6649 27.2927C42.4809 27.2927 45.3649 25.0807 45.3929 20.7407V7.24469H41.3609V9.42869C40.5209 7.94469 39.0929 6.90869 36.7129 6.90869C33.0729 6.90869 30.2729 9.84869 30.2729 14.0487V14.2447C30.2729 18.5847 33.1009 21.2447 36.6569 21.2447C38.8129 21.2447 40.5489 19.9567 41.3609 18.5287V20.7407C41.3609 23.0367 40.1289 24.3247 37.6649 24.3247C35.5929 24.3247 34.6689 23.4847 34.4169 22.1967H30.3849C30.7769 25.2207 32.9329 27.2927 37.6649 27.2927ZM37.8609 18.1927C35.8449 18.1927 34.4169 16.6807 34.4169 14.2447V14.0207C34.4169 11.6127 35.6769 9.98869 37.9449 9.98869C40.1569 9.98869 41.4729 11.5007 41.4729 13.9927V14.1887C41.4729 16.6807 39.9889 18.1927 37.8609 18.1927Z" fill="#111111"/>
<path d="M54.9617 19.1167C52.6657 19.1167 51.3777 17.4367 51.3777 14.6367V14.4127C51.3777 11.6127 52.7217 9.98869 54.9617 9.98869C57.2297 9.98869 58.5457 11.6687 58.5457 14.4687V14.6647C58.5457 17.4367 57.2297 19.1167 54.9617 19.1167ZM54.9337 22.1967C59.3297 22.1967 62.6617 19.2567 62.6617 14.6367V14.4127C62.6617 9.84869 59.3577 6.90869 54.9617 6.90869C50.5657 6.90869 47.2337 9.90469 47.2337 14.4967V14.7207C47.2337 19.2847 50.5657 22.1967 54.9337 22.1967Z" fill="#111111"/>
</g>
<defs>
<clipPath id="clip0_6_616">
<rect width="63" height="27" fill="white" transform="translate(0 0.888672)"/>
</clipPath>
</defs>
</svg>
