<svg width="49" height="48" viewBox="0 0 49 48" fill="none" xmlns="http://www.w3.org/2000/svg">
<g id="Icon / Relume">
<path id="Vector" fill-rule="evenodd" clip-rule="evenodd" d="M41.7933 14.24L41.5133 13.74C41.1521 13.1354 40.6427 12.6329 40.0333 12.28L26.6133 4.54C26.0057 4.1875 25.3159 4.00124 24.6133 4H24.0333C23.3307 4.00124 22.6409 4.1875 22.0333 4.54L8.61331 12.3C8.00725 12.6505 7.50383 13.1539 7.15331 13.76L6.87331 14.26C6.52081 14.8677 6.33455 15.5575 6.33331 16.26V31.76C6.33455 32.4626 6.52081 33.1524 6.87331 33.76L7.15331 34.26C7.51289 34.859 8.01429 35.3604 8.61331 35.72L22.0533 43.46C22.6579 43.8198 23.3497 44.0066 24.0533 44H24.6133C25.3159 43.9988 26.0057 43.8126 26.6133 43.46L40.0333 35.7C40.6453 35.3574 41.1507 34.852 41.4933 34.24L41.7933 33.74C42.1415 33.1306 42.3275 32.442 42.3333 31.74V16.24C42.3321 15.5375 42.1459 14.8477 41.7933 14.24ZM24.0333 8H24.6133L36.3333 14.76L24.3333 21.68L12.3333 14.76L24.0333 8ZM26.3333 39L38.0333 32.24L38.3333 31.74V18.22L26.3333 25.16V39Z" fill="#111111"/>
</g>
</svg>
